<svg width="525" height="158" viewBox="0 0 525 158" fill="none" xmlns="http://www.w3.org/2000/svg">
<path d="M466.048 90.0647C465.493 90.0647 465.043 89.6147 465.043 89.0595V1.00519C465.043 0.450039 465.493 0 466.048 0H473.559C474.114 0 474.564 0.450037 474.564 1.00519V80.8251C474.564 81.3802 475.014 81.8302 475.569 81.8302H523.995C524.55 81.8302 525 82.2803 525 82.8354V89.0595C525 89.6147 524.55 90.0647 523.995 90.0647H466.048Z" fill="#252429"/>
<path d="M359.971 90.0647C359.239 90.0647 358.753 89.3074 359.057 88.6416L399.31 0.587273C399.474 0.229491 399.831 0 400.224 0H408.326C408.719 0 409.076 0.229488 409.24 0.58727L449.493 88.6416C449.797 89.3074 449.311 90.0647 448.579 90.0647H440.759C440.363 90.0647 440.004 89.8319 439.842 89.4701L402.914 6.94831C402.617 6.28334 403.103 5.53255 403.832 5.53255H404.59C405.318 5.53255 405.805 6.28335 405.507 6.94832L368.579 89.4701C368.418 89.8319 368.058 90.0647 367.662 90.0647H359.971ZM429.993 66.0046C429.596 66.0046 429.237 65.7717 429.075 65.41L426.52 59.7005C426.223 59.0355 426.709 58.2847 427.438 58.2847H429.113C429.534 58.2847 429.911 58.548 430.056 58.9439L432.15 64.6534C432.39 65.3093 431.905 66.0046 431.206 66.0046H429.993Z" fill="#252429"/>
<path d="M37.0552 90.8367C25.5612 90.8367 16.5119 87.5343 9.90712 80.9296C3.30237 74.3249 0 64.5464 0 51.5942V1.00519C0 0.450038 0.450037 0 1.00519 0H8.51594C9.07109 0 9.52113 0.450037 9.52113 1.00519V51.2082C9.52113 61.8445 11.9229 69.6929 16.7263 74.7537C21.5298 79.8145 28.3061 82.3449 37.0552 82.3449C45.8901 82.3449 52.7093 79.8145 57.5128 74.7537C62.3162 69.6929 64.7179 61.8445 64.7179 51.2082V1.00519C64.7179 0.450039 65.168 0 65.7231 0H72.9766C73.5317 0 73.9817 0.450037 73.9817 1.00519V51.5942C73.9817 64.5464 70.6794 74.3249 64.0746 80.9296C57.5556 87.5343 48.5492 90.8367 37.0552 90.8367Z" fill="#252429"/>
<path fill-rule="evenodd" clip-rule="evenodd" d="M102.673 53.2669V89.0595C102.673 89.6147 103.123 90.0647 103.678 90.0647H111.189C111.744 90.0647 112.194 89.6147 112.194 89.0595V61.63H136.383C144.017 61.63 150.579 60.3863 156.068 57.8988C161.558 55.4113 165.761 51.8944 168.677 47.3483C171.68 42.7164 173.181 37.2268 173.181 30.8793C173.181 24.3604 171.68 18.8278 168.677 14.2817C165.761 9.6498 161.558 6.13298 156.068 3.73126C150.579 1.24375 144.017 0 136.383 0H103.678C103.123 0 102.673 0.450038 102.673 1.00519V8.23449H107.948H112.194H136.125C145.132 8.23449 151.951 10.2073 156.583 14.153C161.301 18.0987 163.659 23.6742 163.659 30.8793C163.659 37.9987 161.301 43.5313 156.583 47.477C151.951 51.3369 145.132 53.2669 136.125 53.2669H112.194H107.948H102.673Z" fill="#252429"/>
<path fill-rule="evenodd" clip-rule="evenodd" d="M193.768 53.3955V89.0595C193.768 89.6147 194.218 90.0647 194.773 90.0647H202.284C202.839 90.0647 203.289 89.6147 203.289 89.0595V61.5013H227.478C230.019 61.5013 232.441 61.3683 234.745 61.1022L254.969 89.6407C255.157 89.9067 255.463 90.0647 255.789 90.0647H263.74C264.557 90.0647 265.033 89.1416 264.559 88.4762L243.703 59.2081C244.9 58.8207 246.054 58.3843 247.163 57.8988C252.653 55.4113 256.856 51.8944 259.772 47.3483C262.775 42.7164 264.276 37.2268 264.276 30.8793C264.276 24.3604 262.775 18.8278 259.772 14.2817C256.856 9.6498 252.653 6.13298 247.163 3.73126C241.674 1.24375 235.112 0 227.478 0H194.773C194.218 0 193.768 0.450038 193.768 1.00519V8.23449H199.043H203.289H227.22C236.227 8.23449 243.046 10.2073 247.678 14.153C252.396 18.0987 254.755 23.6742 254.755 30.8793C254.755 37.9987 252.396 43.5313 247.678 47.477C243.046 51.4227 236.227 53.3955 227.22 53.3955H203.289H199.043H193.768Z" fill="#252429"/>
<path fill-rule="evenodd" clip-rule="evenodd" d="M348.097 41.277C348.097 40.7218 347.647 40.2718 347.092 40.2718H288.288C287.733 40.2718 287.283 40.7218 287.283 41.277V46.8499C287.283 47.4019 287.728 47.8505 288.28 47.8551L347.083 48.3411C347.642 48.3457 348.097 47.8943 348.097 47.3359V41.277ZM296.269 81.8302H286.748V89.0595C286.748 89.6147 287.198 90.0647 287.753 90.0647H347.594C348.149 90.0647 348.6 89.6147 348.6 89.0595V82.8354C348.6 82.2803 348.149 81.8302 347.594 81.8302H296.269ZM296.269 8.23449H347.512C348.063 8.23449 348.511 7.79136 348.518 7.24069L348.588 1.01657C348.594 0.457006 348.142 0 347.583 0H287.753C287.198 0 286.748 0.450038 286.748 1.00519V8.23449H296.269Z" fill="#252429"/>
<path d="M261.118 156.994C260.563 156.994 260.113 156.544 260.113 155.989V112.967C260.113 112.412 260.563 111.962 261.118 111.962H263.552C263.858 111.962 264.148 112.102 264.339 112.342L294.246 149.988C294.594 150.428 294.282 151.076 293.721 151.076C293.351 151.076 293.051 150.775 293.051 150.405V112.967C293.051 112.412 293.501 111.962 294.056 111.962H296.742C297.297 111.962 297.747 112.412 297.747 112.967V155.989C297.747 156.544 297.297 156.994 296.742 156.994H294.308C294.001 156.994 293.711 156.854 293.521 156.613L263.677 118.968C263.328 118.528 263.641 117.88 264.202 117.88C264.573 117.88 264.873 118.181 264.873 118.551V155.989C264.873 156.544 264.423 156.994 263.868 156.994H261.118Z" fill="#252429"/>
<path d="M195.365 156.994C194.934 156.994 194.55 156.719 194.413 156.31L179.908 113.288C179.688 112.636 180.173 111.962 180.861 111.962H183.627C184.059 111.962 184.443 112.238 184.58 112.647L198.181 153.203C198.371 153.77 197.949 154.356 197.351 154.356C196.75 154.356 196.328 153.764 196.525 153.196L210.556 112.638C210.697 112.233 211.078 111.962 211.506 111.962H214.446C214.876 111.962 215.258 112.235 215.397 112.642L229.265 153.259C229.449 153.797 229.049 154.356 228.48 154.356C227.912 154.356 227.513 153.799 227.694 153.261L241.439 112.645C241.577 112.236 241.96 111.962 242.391 111.962H244.838C245.525 111.962 246.01 112.636 245.79 113.288L231.286 156.31C231.148 156.719 230.765 156.994 230.333 156.994H226.754C226.325 156.994 225.944 156.722 225.804 156.316L212.415 117.394C212.313 117.097 212.534 116.787 212.849 116.787C213.164 116.787 213.385 117.097 213.282 117.395L199.831 156.317C199.691 156.722 199.309 156.994 198.881 156.994H195.365Z" fill="#252429"/>
<path d="M146.307 157.38C142.919 157.38 139.766 156.822 136.85 155.707C133.977 154.549 131.468 152.941 129.323 150.883C127.222 148.781 125.57 146.358 124.37 143.613C123.212 140.825 122.633 137.78 122.633 134.478C122.633 131.175 123.212 128.152 124.37 125.407C125.57 122.619 127.222 120.196 129.323 118.138C131.468 116.036 133.977 114.428 136.85 113.313C139.723 112.155 142.876 111.576 146.307 111.576C149.695 111.576 152.826 112.155 155.699 113.313C158.573 114.428 161.06 116.015 163.162 118.073C165.306 120.132 166.957 122.555 168.115 125.343C169.316 128.13 169.917 131.175 169.917 134.478C169.917 137.78 169.316 140.825 168.115 143.613C166.957 146.401 165.306 148.824 163.162 150.883C161.06 152.941 158.573 154.549 155.699 155.707C152.826 156.822 149.695 157.38 146.307 157.38ZM146.307 153.134C149.009 153.134 151.496 152.684 153.769 151.783C156.085 150.84 158.08 149.532 159.752 147.859C161.468 146.143 162.797 144.171 163.741 141.94C164.684 139.667 165.156 137.18 165.156 134.478C165.156 131.776 164.684 129.31 163.741 127.08C162.797 124.807 161.468 122.834 159.752 121.161C158.08 119.446 156.085 118.138 153.769 117.237C151.496 116.293 149.009 115.822 146.307 115.822C143.605 115.822 141.096 116.293 138.78 117.237C136.464 118.138 134.448 119.446 132.733 121.161C131.06 122.834 129.731 124.807 128.744 127.08C127.801 129.31 127.329 131.776 127.329 134.478C127.329 137.137 127.801 139.603 128.744 141.876C129.731 144.149 131.06 146.143 132.733 147.859C134.448 149.532 136.464 150.84 138.78 151.783C141.096 152.684 143.605 153.134 146.307 153.134Z" fill="#252429"/>
<path fill-rule="evenodd" clip-rule="evenodd" d="M347.967 133.103C347.967 132.548 347.517 132.098 346.962 132.098H322.352H319.006C318.451 132.098 318.001 132.548 318.001 133.103V135.145C318.001 135.7 318.451 136.15 319.006 136.15H322.352H346.962C347.517 136.15 347.967 135.7 347.967 135.145V133.103ZM322.352 152.877H317.592V155.989C317.592 156.544 318.042 156.994 318.597 156.994H347.465C348.02 156.994 348.47 156.544 348.47 155.989V153.882C348.47 153.327 348.02 152.877 347.465 152.877H322.352ZM322.352 116.079H347.466C348.021 116.079 348.471 115.629 348.471 115.074V112.967C348.471 112.412 348.021 111.962 347.466 111.962H318.597C318.042 111.962 317.592 112.412 317.592 112.967V116.079H322.352Z" fill="#252429"/>
<path fill-rule="evenodd" clip-rule="evenodd" d="M365.773 138.659V155.989C365.773 156.544 366.223 156.994 366.778 156.994H369.528C370.083 156.994 370.533 156.544 370.533 155.989V142.712H382.628C383.898 142.712 385.109 142.646 386.261 142.513L396.223 156.57C396.411 156.836 396.717 156.994 397.043 156.994H399.784C400.601 156.994 401.077 156.071 400.602 155.406L390.74 141.566C391.339 141.372 391.916 141.154 392.47 140.911C395.215 139.667 397.317 137.909 398.775 135.636C400.276 133.32 401.027 130.575 401.027 127.401C401.027 124.142 400.276 121.376 398.775 119.103C397.317 116.787 395.215 115.028 392.47 113.827C389.726 112.584 386.445 111.962 382.628 111.962H366.778C366.223 111.962 365.773 112.412 365.773 112.967V116.079H368.41H370.533H382.499C387.002 116.079 390.412 117.065 392.728 119.038C395.087 121.011 396.266 123.799 396.266 127.401C396.266 130.961 395.087 133.727 392.728 135.7C390.412 137.673 387.002 138.659 382.499 138.659H370.533H368.41H365.773Z" fill="#252429"/>
</svg>
