<svg width="300" height="48" viewBox="0 0 300 48" fill="none" xmlns="http://www.w3.org/2000/svg">
<path d="M266.739 47.5921C266.186 47.5921 265.739 47.1444 265.739 46.5921V0.999999C265.739 0.447715 266.186 0 266.739 0H270.179C270.732 0 271.179 0.447715 271.179 1V42.2408C271.179 42.7931 271.627 43.2408 272.179 43.2408H299C299.552 43.2408 300 43.6885 300 44.2408V46.5921C300 47.1444 299.552 47.5921 299 47.5921H266.739Z" fill="#252429"/>
<path d="M206.413 47.5921C205.672 47.5921 205.188 46.8135 205.517 46.1489L228.055 0.556843C228.224 0.215831 228.572 0 228.952 0H233.077C233.457 0 233.805 0.215832 233.973 0.556843L256.512 46.1489C256.84 46.8135 256.357 47.5921 255.615 47.5921H252.117C251.734 47.5921 251.384 47.3728 251.217 47.0277L230.355 3.91623C230.133 3.45703 230.467 2.92352 230.978 2.92352C231.488 2.92352 231.822 3.45703 231.6 3.91623L210.738 47.0277C210.571 47.3728 210.221 47.5921 209.838 47.5921H206.413ZM245.902 34.8782C245.557 34.8782 245.242 34.681 245.092 34.3706L244.293 32.7195L244.05 32.2159C243.732 31.5604 244.21 30.7989 244.938 30.7989C245.343 30.7989 245.706 31.0459 245.856 31.4221L246.738 33.6473C246.972 34.2377 246.537 34.8782 245.902 34.8782Z" fill="#252429"/>
<path d="M21.1744 48C14.6064 48 9.43535 46.255 5.66121 42.7649C1.88707 39.2748 0 34.1076 0 27.2635V1C0 0.447716 0.447715 0 1 0H4.44065C4.99293 0 5.44065 0.447715 5.44065 1V27.0595C5.44065 32.6799 6.81306 36.8272 9.55789 39.5014C12.3027 42.1756 16.1749 43.5127 21.1744 43.5127C26.2229 43.5127 30.1196 42.1756 32.8644 39.5014C35.6093 36.8272 36.9817 32.6799 36.9817 27.0595V1C36.9817 0.447715 37.4294 0 37.9817 0H41.2753C41.8276 0 42.2753 0.447715 42.2753 1V27.2635C42.2753 34.1076 40.3882 39.2748 36.6141 42.7649C32.8889 46.255 27.7424 48 21.1744 48Z" fill="#252429"/>
<path fill-rule="evenodd" clip-rule="evenodd" d="M58.6702 28.1473V46.5921C58.6702 47.1444 59.1179 47.5921 59.6702 47.5921H63.1108C63.6631 47.5921 64.1108 47.1444 64.1108 46.5921V32.5666H77.933C82.2953 32.5666 86.0449 31.9093 89.1819 30.5949C92.3188 29.2805 94.7206 27.4221 96.3871 25.0198C98.1026 22.5722 98.9604 19.6714 98.9604 16.3173C98.9604 12.8725 98.1026 9.94901 96.3871 7.54674C94.7206 5.09915 92.3188 3.2408 89.1819 1.97167C86.0449 0.657225 82.2953 0 77.933 0H59.6702C59.1179 0 58.6702 0.447716 58.6702 1V4.35127H61.6846H64.1108H77.7859C82.9325 4.35127 86.8292 5.39377 89.476 7.47875C92.1718 9.56374 93.5197 12.5099 93.5197 16.3173C93.5197 20.0793 92.1718 23.0028 89.476 25.0878C86.8292 27.1275 82.9325 28.1473 77.7859 28.1473H64.1108H61.6846H58.6702Z" fill="#252429"/>
<path fill-rule="evenodd" clip-rule="evenodd" d="M110.724 28.2153V46.5921C110.724 47.1444 111.172 47.5921 111.724 47.5921H115.165C115.717 47.5921 116.165 47.1444 116.165 46.5921V32.4986H129.987C131.439 32.4986 132.823 32.4283 134.14 32.2877L145.568 47.2003C145.757 47.4473 146.051 47.5921 146.362 47.5921H149.79C150.62 47.5921 151.089 46.6392 150.582 45.9817L139.259 31.2868C139.943 31.0821 140.602 30.8515 141.236 30.5949C144.373 29.2805 146.775 27.4221 148.441 25.0198C150.157 22.5722 151.015 19.6714 151.015 16.3173C151.015 12.8725 150.157 9.94901 148.441 7.54674C146.775 5.09915 144.373 3.2408 141.236 1.97167C138.099 0.657225 134.35 0 129.987 0H111.724C111.172 0 110.724 0.447716 110.724 1V4.35127H113.739H116.165H129.84C134.987 4.35127 138.883 5.39377 141.53 7.47875C144.226 9.56374 145.574 12.5099 145.574 16.3173C145.574 20.0793 144.226 23.0028 141.53 25.0878C138.883 27.1728 134.987 28.2153 129.84 28.2153H116.165H113.739H110.724Z" fill="#252429"/>
<path fill-rule="evenodd" clip-rule="evenodd" d="M198.913 22.2805C198.913 21.7282 198.465 21.2805 197.913 21.2805H165.162C164.61 21.2805 164.162 21.7282 164.162 22.2805V24.2909C164.162 24.8402 164.605 25.2867 165.154 25.2909L197.905 25.5412C198.46 25.5454 198.913 25.0965 198.913 24.5412V22.2805ZM169.296 43.2408H163.856V46.5921C163.856 47.1444 164.303 47.5921 164.856 47.5921H198.2C198.752 47.5921 199.2 47.1444 199.2 46.5921V44.2408C199.2 43.6885 198.752 43.2408 198.2 43.2408H169.296ZM169.296 4.35127H198.159C198.706 4.35127 199.152 3.91099 199.159 3.36352L199.187 1.01225C199.194 0.455214 198.745 0 198.187 0H164.856C164.303 0 163.856 0.447716 163.856 1V4.35127H169.296Z" fill="#252429"/>
</svg>
