<svg width="108" height="108" viewBox="0 0 108 108" fill="none" xmlns="http://www.w3.org/2000/svg">
<g filter="url(#filter0_ddii_1_1138)">
<circle cx="54.5" cy="54.5" r="26.5" fill="url(#paint0_linear_1_1138)"/>
</g>
<g filter="url(#filter1_d_1_1138)">
<path d="M53.2311 66C50.5425 66 48.4513 65.2119 46.9575 63.6357C45.4638 62.0297 44.717 59.7695 44.717 56.855C44.717 53.7918 44.6572 50.8178 44.5377 47.9331C44.4182 45.0483 44.239 43.1598 44 42.2676C44.7767 42.0892 45.5684 42 46.375 42C47.1517 42 48.033 42.0892 49.0189 42.2676C48.8396 46.6097 48.75 51.5167 48.75 56.9888C48.75 61.0632 50.5425 63.1004 54.1274 63.1004C57.9214 63.1004 59.8184 61.2565 59.8184 57.5688C59.8184 49.1524 59.6989 44.052 59.4599 42.2676C60.0275 42.0892 60.5951 42 61.1627 42C61.6706 42 62.283 42.0892 63 42.2676C62.9104 43.9628 62.8208 46.2379 62.7311 49.0929C62.6714 51.9479 62.6415 54.461 62.6415 56.632C62.6415 59.368 61.9245 61.6134 60.4906 63.368C59.0566 65.1227 56.6368 66 53.2311 66Z" fill="url(#paint1_linear_1_1138)"/>
</g>
<defs>
<filter id="filter0_ddii_1_1138" x="16" y="24" width="77" height="77" filterUnits="userSpaceOnUse" color-interpolation-filters="sRGB">
<feFlood flood-opacity="0" result="BackgroundImageFix"/>
<feColorMatrix in="SourceAlpha" type="matrix" values="0 0 0 0 0 0 0 0 0 0 0 0 0 0 0 0 0 0 127 0" result="hardAlpha"/>
<feOffset dy="8"/>
<feGaussianBlur stdDeviation="6"/>
<feColorMatrix type="matrix" values="0 0 0 0 0 0 0 0 0 0 0 0 0 0 0 0 0 0 0.25 0"/>
<feBlend mode="normal" in2="BackgroundImageFix" result="effect1_dropShadow_1_1138"/>
<feColorMatrix in="SourceAlpha" type="matrix" values="0 0 0 0 0 0 0 0 0 0 0 0 0 0 0 0 0 0 127 0" result="hardAlpha"/>
<feOffset dy="1"/>
<feGaussianBlur stdDeviation="1.5"/>
<feColorMatrix type="matrix" values="0 0 0 0 0 0 0 0 0 0 0 0 0 0 0 0 0 0 0.25 0"/>
<feBlend mode="normal" in2="effect1_dropShadow_1_1138" result="effect2_dropShadow_1_1138"/>
<feBlend mode="normal" in="SourceGraphic" in2="effect2_dropShadow_1_1138" result="shape"/>
<feColorMatrix in="SourceAlpha" type="matrix" values="0 0 0 0 0 0 0 0 0 0 0 0 0 0 0 0 0 0 127 0" result="hardAlpha"/>
<feOffset dx="-3" dy="-3"/>
<feGaussianBlur stdDeviation="2"/>
<feComposite in2="hardAlpha" operator="arithmetic" k2="-1" k3="1"/>
<feColorMatrix type="matrix" values="0 0 0 0 0.114792 0 0 0 0 0.245569 0 0 0 0 0.3625 0 0 0 1 0"/>
<feBlend mode="normal" in2="shape" result="effect3_innerShadow_1_1138"/>
<feColorMatrix in="SourceAlpha" type="matrix" values="0 0 0 0 0 0 0 0 0 0 0 0 0 0 0 0 0 0 127 0" result="hardAlpha"/>
<feOffset dy="2"/>
<feGaussianBlur stdDeviation="1"/>
<feComposite in2="hardAlpha" operator="arithmetic" k2="-1" k3="1"/>
<feColorMatrix type="matrix" values="0 0 0 0 0.816667 0 0 0 0 0.956 0 0 0 0 1 0 0 0 1 0"/>
<feBlend mode="multiply" in2="effect3_innerShadow_1_1138" result="effect4_innerShadow_1_1138"/>
</filter>
<filter id="filter1_d_1_1138" x="40" y="42" width="27" height="32" filterUnits="userSpaceOnUse" color-interpolation-filters="sRGB">
<feFlood flood-opacity="0" result="BackgroundImageFix"/>
<feColorMatrix in="SourceAlpha" type="matrix" values="0 0 0 0 0 0 0 0 0 0 0 0 0 0 0 0 0 0 127 0" result="hardAlpha"/>
<feOffset dy="4"/>
<feGaussianBlur stdDeviation="2"/>
<feColorMatrix type="matrix" values="0 0 0 0 0 0 0 0 0 0 0 0 0 0 0 0 0 0 0.25 0"/>
<feBlend mode="normal" in2="BackgroundImageFix" result="effect1_dropShadow_1_1138"/>
<feBlend mode="normal" in="SourceGraphic" in2="effect1_dropShadow_1_1138" result="shape"/>
</filter>
<linearGradient id="paint0_linear_1_1138" x1="54.5" y1="28" x2="54.5" y2="81" gradientUnits="userSpaceOnUse">
<stop stop-color="#617489"/>
<stop offset="0.0989583" stop-color="#3E5670"/>
<stop offset="1" stop-color="#0F1011"/>
</linearGradient>
<linearGradient id="paint1_linear_1_1138" x1="54.5" y1="42" x2="54.5" y2="66" gradientUnits="userSpaceOnUse">
<stop stop-color="#E0E0E0"/>
<stop offset="0.0001" stop-color="white"/>
<stop offset="1" stop-color="#D6D7D8"/>
</linearGradient>
</defs>
</svg>
