<svg width="108" height="108" viewBox="0 0 108 108" fill="none" xmlns="http://www.w3.org/2000/svg">
<g clip-path="url(#clip0_1_1138)">
<g filter="url(#filter0_d_1_1138)">
<path d="M36 41.4545C44.9627 42.2237 51.1768 49.9129 51.1768 54.5265V59.1401C51.1768 66.8295 60.1394 72.9811 67.6083 69.1364C67.6083 72.2121 64.2605 79.0053 54.7469 79C45.2333 78.9947 36.088 72.202 36 63.7542V41.4545Z" fill="url(#paint0_linear_1_1138)" fill-opacity="0.6" shape-rendering="crispEdges"/>
<path d="M72 30C62.9984 30.7658 56.9973 38.4219 56.9973 43.0156V59.8593C56.9973 67.5156 44.9951 73.2827 37.4938 69.4545C38.5018 71.6502 44.0966 78.9928 54.7469 79C65.3971 79.0072 72 72.8749 72 64.4534V30Z" fill="url(#paint1_linear_1_1138)" shape-rendering="crispEdges"/>
</g>
</g>
<defs>
<filter id="filter0_d_1_1138" x="32" y="26" width="44" height="57" filterUnits="userSpaceOnUse" color-interpolation-filters="sRGB">
<feFlood flood-opacity="0" result="BackgroundImageFix"/>
<feColorMatrix in="SourceAlpha" type="matrix" values="0 0 0 0 0 0 0 0 0 0 0 0 0 0 0 0 0 0 127 0" result="hardAlpha"/>
<feOffset/>
<feGaussianBlur stdDeviation="2"/>
<feComposite in2="hardAlpha" operator="out"/>
<feColorMatrix type="matrix" values="0 0 0 0 0 0 0 0 0 0 0 0 0 0 0 0 0 0 0.25 0"/>
<feBlend mode="normal" in2="BackgroundImageFix" result="effect1_dropShadow_1_1138"/>
<feBlend mode="normal" in="SourceGraphic" in2="effect1_dropShadow_1_1138" result="shape"/>
</filter>
<linearGradient id="paint0_linear_1_1138" x1="62.3705" y1="31.0035" x2="62.3705" y2="74.8475" gradientUnits="userSpaceOnUse">
<stop offset="0.389674" stop-color="#07121E"/>
<stop offset="0.992294" stop-color="#203041" stop-opacity="0.58"/>
</linearGradient>
<linearGradient id="paint1_linear_1_1138" x1="54.7469" y1="30" x2="54.7469" y2="78.9999" gradientUnits="userSpaceOnUse">
<stop stop-color="#617489"/>
<stop offset="0.09" stop-color="#3E5670" stop-opacity="0.835"/>
<stop offset="0.914" stop-color="#112234"/>
</linearGradient>
<clipPath id="clip0_1_1138">
<rect width="36" height="49" fill="white" transform="translate(36 30)"/>
</clipPath>
</defs>
</svg>
